<svg width="24" height="24" viewBox="0 0 24 24" fill="none" xmlns="http://www.w3.org/2000/svg">
<path d="M20.9471 8.30532C20.937 7.54795 20.7952 6.7981 20.5281 6.08932C20.2964 5.49147 19.9426 4.94852 19.4892 4.49515C19.0359 4.04179 18.4929 3.68797 17.8951 3.45632C17.1954 3.19368 16.4562 3.05166 15.7091 3.03632C14.7471 2.99332 14.4421 2.98132 12.0001 2.98132C9.55807 2.98132 9.24507 2.98132 8.29007 3.03632C7.54323 3.05178 6.80442 3.19379 6.10507 3.45632C5.50713 3.68781 4.96409 4.04157 4.5107 4.49496C4.05731 4.94834 3.70356 5.49138 3.47207 6.08932C3.2089 6.78846 3.06719 7.52743 3.05307 8.27432C3.01007 9.23732 2.99707 9.54232 2.99707 11.9843C2.99707 14.4263 2.99707 14.7383 3.05307 15.6943C3.06807 16.4423 3.20907 17.1803 3.47207 17.8813C3.70395 18.4791 4.05797 19.0219 4.51151 19.4751C4.96505 19.9283 5.50813 20.2819 6.10607 20.5133C6.8035 20.7865 7.54244 20.9387 8.29107 20.9633C9.25407 21.0063 9.55907 21.0193 12.0011 21.0193C14.4431 21.0193 14.7561 21.0193 15.7111 20.9633C16.4582 20.9486 17.1974 20.8069 17.8971 20.5443C18.4948 20.3124 19.0376 19.9585 19.4909 19.5052C19.9442 19.0518 20.2981 18.509 20.5301 17.9113C20.7931 17.2113 20.9341 16.4733 20.9491 15.7243C20.9921 14.7623 21.0051 14.4573 21.0051 12.0143C21.0031 9.57232 21.0031 9.26232 20.9471 8.30532ZM11.9941 16.6023C9.44007 16.6023 7.37107 14.5333 7.37107 11.9793C7.37107 9.42532 9.44007 7.35632 11.9941 7.35632C13.2202 7.35632 14.396 7.84339 15.263 8.71037C16.13 9.57735 16.6171 10.7532 16.6171 11.9793C16.6171 13.2054 16.13 14.3813 15.263 15.2483C14.396 16.1153 13.2202 16.6023 11.9941 16.6023ZM16.8011 8.26332C16.2041 8.26332 15.7231 7.78132 15.7231 7.18532C15.7231 7.04382 15.7509 6.90371 15.8051 6.77298C15.8592 6.64225 15.9386 6.52347 16.0387 6.42342C16.1387 6.32336 16.2575 6.24399 16.3882 6.18984C16.519 6.13569 16.6591 6.10782 16.8006 6.10782C16.9421 6.10782 17.0822 6.13569 17.2129 6.18984C17.3436 6.24399 17.4624 6.32336 17.5625 6.42342C17.6625 6.52347 17.7419 6.64225 17.796 6.77298C17.8502 6.90371 17.8781 7.04382 17.8781 7.18532C17.8781 7.78132 17.3961 8.26332 16.8011 8.26332Z" fill="white"/>
<path d="M11.9937 14.9823C13.6522 14.9823 14.9967 13.6378 14.9967 11.9793C14.9967 10.3208 13.6522 8.97632 11.9937 8.97632C10.3352 8.97632 8.99072 10.3208 8.99072 11.9793C8.99072 13.6378 10.3352 14.9823 11.9937 14.9823Z" fill="white"/>
</svg>
